<?xml version="1.0" encoding="utf-8"?>
<!-- Generator: Adobe Illustrator 21.0.2, SVG Export Plug-In . SVG Version: 6.00 Build 0)  -->
<svg version="1.2" baseProfile="tiny" id="Layer_1" xmlns="http://www.w3.org/2000/svg" xmlns:xlink="http://www.w3.org/1999/xlink"
	 x="0px" y="0px" viewBox="0 0 1000 1000" xml:space="preserve">
<g>
	<g>
		<g>
			<path fill="#93CAE5" d="M305.6,170.6c-10.1,24.5-11.8,47.5-11.7,76c0.4,110.7,86.3,200.1,191.9,199.8s191-90.3,190.6-201
				C676,134.6,590.1,45.2,484.5,45.5c-61.6,0.2-116.3,30.9-151.1,78.4"/>
		</g>
		<g>
			<g>
				<path fill="#4AAACC" d="M292.6,166.8c-33.1,85.7-2.4,189.8,65,246.7c66.2,56,160,60.9,232.8,16.3c73.5-45,109-134.9,96.2-221.4
					c-12.8-86.6-81.3-155.7-162-173c-75.2-16.2-153.6,16-200.9,78.5C313,128,332,148,342.8,133.8c61.2-81,169.6-97.2,249.5-36.6
					c73,55.4,89.5,163.8,45.7,243.7c-44.7,81.3-144.9,112.5-225.8,75c-85.3-39.6-128.8-150.7-93.6-241.7
					C325.1,157.4,299.1,150.2,292.6,166.8L292.6,166.8z"/>
			</g>
		</g>
	</g>
	<g>
		<g>
			<polygon fill="#EDA84B" points="494.2,948.4 494.2,948.4 660,384 324.7,385.1 			"/>
		</g>
		<g>
			<g>
				<polyline fill="#EDA84B" points="476.6,892.5 494.1,946.9 494.1,946.9 572.9,679.1 				"/>
			</g>
			<g>
				<g>
					<path fill="#C47622" d="M467.6,890.3c5.9,18.2,11.7,36.3,17.6,54.5c4.3,13.2,21.9,13.6,25.9-0.1
						c26.2-89.3,52.5-178.6,78.7-267.9c5.1-17.4-20.9-23.5-26-6.2c-26.2,89.3-52.5,174-78.7,269.1c8.6,0,17.3-0.1,25.9-0.1
						c-5.9-20.3-11.7-37.6-17.6-55.7C488,866.8,462,873,467.6,890.3L467.6,890.3z"/>
				</g>
			</g>
		</g>
		<g>
			<g>
				<polyline fill="#EDA84B" points="587.2,627.1 660,384 324.7,385.1 461,838 				"/>
			</g>
			<g>
				<g>
					<path fill="#C47622" d="M600.2,630.1c24.3-81.3,48.6-161.6,72.9-242.8c2.6-8.8-4.5-16.9-13-16.8
						c-111.8,0.4-223.6,0.7-335.4,1.1c-8.5,0-15.6,8.1-12.9,16.9c45.5,151.1,90.9,301.7,136.4,452.8c5.2,17.3,31.2,9.6,25.9-7.8
						c-45.5-151.1-90.9-303-136.4-454.1c-4.3,6-8.6,12.5-12.9,17.1c111.8-0.4,223.6-0.7,335.4-1.1c-4.3-4.5-8.7-11.2-13-17.1
						c-24.3,81.3-48.6,162.9-72.9,244.2C569,639.7,595,647.4,600.2,630.1L600.2,630.1z"/>
				</g>
			</g>
		</g>
		<g>
			<g>
				<g>
					<polygon fill="#C47622" points="523.6,827.8 417.9,733.2 435.3,711.7 541.1,806.4 					"/>
				</g>
			</g>
			<g>
				<g>
					<polygon fill="#C47622" points="557.5,725.7 363.3,551.8 380.8,530.4 574.9,704.2 					"/>
				</g>
			</g>
			<g>
				<g>
					<polygon fill="#C47622" points="585.2,618 335.4,394.3 352.9,372.9 602.7,596.6 					"/>
				</g>
			</g>
			<g>
				<g>
					<polygon fill="#C47622" points="616.1,513.1 482.7,393.7 500.2,372.2 633.6,491.7 					"/>
				</g>
			</g>
		</g>
		<g>
			<g>
				<g>
					<polygon fill="#C47622" points="495,931.4 477.4,910.1 498.7,890.8 516.3,912.1 					"/>
				</g>
			</g>
			<g>
				<g>
					<polygon fill="#C47622" points="463.6,826.7 445.9,805.4 557.4,704.3 575,725.6 					"/>
				</g>
			</g>
			<g>
				<g>
					<polygon fill="#C47622" points="432.1,722 414.5,700.7 605.5,527.3 623.2,548.6 					"/>
				</g>
			</g>
			<g>
				<g>
					<polygon fill="#C47622" points="400.6,617.3 383,596 629.9,372 647.5,393.3 					"/>
				</g>
			</g>
			<g>
				<g>
					<polygon fill="#C47622" points="369.1,512.6 351.4,491.3 482.6,372.3 500.2,393.6 					"/>
				</g>
			</g>
		</g>
	</g>
	<g>
		<g>
			<path fill="#93CAE5" d="M613.8,350.3c0.1,24.3,19,44,42.2,43.9s42-19.9,41.9-44.2c-0.1-24.3-19-44-42.2-43.9"/>
		</g>
		<g>
			<g>
				<path fill="#4AAACC" d="M600.3,350.3c2.8,50.9,56.1,74.4,93.3,42.4c17.7-15.2,21.4-43.4,13.4-64.7
					c-8.5-22.5-29.1-34.9-51.4-36.1c-17.3-0.9-17.2,27.3,0.1,28.2c23.9,1.3,37.5,29.3,21.9,49.5c-17.2,22.3-49,6.6-50.4-19.4
					C626.2,332.2,599.3,332.2,600.3,350.3L600.3,350.3z"/>
			</g>
		</g>
	</g>
	<g>
		<g>
			<path fill="#93CAE5" d="M529.2,350.6c0.1,24.3,19,44,42.2,43.9s42-19.9,41.9-44.2"/>
		</g>
		<g>
			<g>
				<path fill="#4AAACC" d="M515.7,350.6c1.8,32.9,24.3,56.3,55.7,58c31.3,1.7,53.9-28.1,55.3-58.3c0.9-18.2-26-18-26.9,0.1
					c-1.9,38.7-55.1,38.8-57.2,0.2C541.7,332.4,514.8,332.4,515.7,350.6L515.7,350.6z"/>
			</g>
		</g>
	</g>
	<g>
		<g>
			<path fill="#93CAE5" d="M444.6,350.8c0.1,24.3,19,44,42.2,43.9s42-19.9,41.9-44.2"/>
		</g>
		<g>
			<g>
				<path fill="#4AAACC" d="M431.2,350.9c1.8,32.9,24.3,56.3,55.7,58c31.3,1.7,53.9-28.1,55.3-58.3c0.9-18.2-26-18-26.9,0.1
					c-1.9,38.7-55.1,38.8-57.2,0.2C457.1,332.7,430.2,332.7,431.2,350.9L431.2,350.9z"/>
			</g>
		</g>
	</g>
	<g>
		<g>
			<path fill="#93CAE5" d="M360.1,351.1c0.1,24.3,19,44,42.2,43.9s42-19.9,41.9-44.2"/>
		</g>
		<g>
			<g>
				<path fill="#4AAACC" d="M346.6,351.1c1.8,32.9,24.3,56.3,55.7,58c31.3,1.7,53.9-28.1,55.3-58.3c0.9-18.2-26-18-26.9,0.1
					c-1.9,38.7-55.1,38.8-57.2,0.2C372.5,333,345.6,333,346.6,351.1L346.6,351.1z"/>
			</g>
		</g>
	</g>
	<g>
		<g>
			<path fill="#93CAE5" d="M317.4,307.2c-4.8,0-9.4,0.9-13.7,2.4c-16.5,6-28.3,22.5-28.3,41.8c0.1,24.3,19,44,42.2,43.9
				s42-19.9,41.9-44.2"/>
		</g>
		<g>
			<g>
				<path fill="#4AAACC" d="M317.4,293.1c-48.5,3-71,58.7-40.4,97.8c14.5,18.5,41.5,22.5,61.7,14c21.5-8.9,33.3-30.4,34.4-53.8
					c0.9-18.2-26-18-26.9,0.1c-1.2,25.1-27.9,39.2-47.2,22.9c-21.3-18-6.2-51.3,18.5-52.8C334.7,320.2,334.7,292,317.4,293.1
					L317.4,293.1z"/>
			</g>
		</g>
	</g>
</g>
</svg>
